<svg width="20" height="20" viewBox="0 0 20 20" fill="none" xmlns="http://www.w3.org/2000/svg">
<path d="M3.36709 6.98099L1.32278 9.02529C0.892405 9.45567 0.892405 10.1012 1.32278 10.5316L4.98101 14.0823L8.53165 10.5316L4.98101 6.98099C4.55063 6.55061 3.79747 6.55061 3.36709 6.98099Z" fill="#185ABD"/>
<path d="M17.6772 5.47468L15.6329 3.32278C15.2025 2.89241 14.5569 2.89241 14.1266 3.32278L11.3291 6.12025L7.77846 9.77848L4.98099 12.576C4.55061 13.0063 4.55061 13.6519 4.98099 14.0823L7.02529 16.1266C7.45567 16.557 8.10124 16.557 8.53162 16.1266L11.3291 13.3291L14.8797 9.77848L17.6772 6.98101C18.1076 6.55063 18.1076 5.79747 17.6772 5.47468Z" fill="url(#paint0_linear)"/>
<defs>
<linearGradient id="paint0_linear" x1="11.098" y1="-0.731524" x2="0.925508" y2="9.81288" gradientUnits="userSpaceOnUse">
<stop stop-color="#62C4F6"/>
<stop offset="1" stop-color="#2A88E5"/>
</linearGradient>
</defs>
</svg>
